<svg width="80" height="80" viewBox="0 0 80 80" fill="none" xmlns="http://www.w3.org/2000/svg">
<rect width="80" height="80" rx="20" fill="#9452D1"/>
<path d="M38 52C41.8667 52 45.1667 50.6417 47.9 47.925C50.6333 45.2083 52 41.9 52 38C52 34.1333 50.6333 30.8333 47.9 28.1C45.1667 25.3667 41.8667 24 38 24C34.1 24 30.7917 25.3667 28.075 28.1C25.3583 30.8333 24 34.1333 24 38C24 41.9 25.3583 45.2083 28.075 47.925C30.7917 50.6417 34.1 52 38 52ZM38 46C35.2333 46 32.775 45.2583 30.625 43.775C28.475 42.2917 26.9333 40.3667 26 38C26.9333 35.6667 28.475 33.75 30.625 32.25C32.775 30.75 35.2333 30 38 30C40.7333 30 43.175 30.75 45.325 32.25C47.475 33.75 49.0333 35.6667 50 38C49.0333 40.3667 47.475 42.2917 45.325 43.775C43.175 45.2583 40.7333 46 38 46ZM38 43C39.8333 43 41.5167 42.5583 43.05 41.675C44.5833 40.7917 45.7833 39.5667 46.65 38C45.7833 36.4667 44.5833 35.25 43.05 34.35C41.5167 33.45 39.8333 33 38 33C36.1333 33 34.4333 33.45 32.9 34.35C31.3667 35.25 30.1667 36.4667 29.3 38C30.1667 39.5667 31.3667 40.7917 32.9 41.675C34.4333 42.5583 36.1333 43 38 43ZM38 41C38.8333 41 39.5417 40.7167 40.125 40.15C40.7083 39.5833 41 38.8667 41 38C41 37.1667 40.7083 36.4583 40.125 35.875C39.5417 35.2917 38.8333 35 38 35C37.1333 35 36.4167 35.2917 35.85 35.875C35.2833 36.4583 35 37.1667 35 38C35 38.8667 35.2833 39.5833 35.85 40.15C36.4167 40.7167 37.1333 41 38 41ZM38 56C35.5 56 33.1583 55.525 30.975 54.575C28.7917 53.625 26.8917 52.3417 25.275 50.725C23.6583 49.1083 22.375 47.2083 21.425 45.025C20.475 42.8417 20 40.5 20 38C20 35.5333 20.475 33.2083 21.425 31.025C22.375 28.8417 23.6583 26.9333 25.275 25.3C26.8917 23.6667 28.7917 22.375 30.975 21.425C33.1583 20.475 35.5 20 38 20C40.4667 20 42.7917 20.475 44.975 21.425C47.1583 22.375 49.0667 23.6667 50.7 25.3C52.3333 26.9333 53.625 28.8417 54.575 31.025C55.525 33.2083 56 35.5333 56 38C56 40.1333 55.65 42.15 54.95 44.05C54.25 45.95 53.2833 47.6833 52.05 49.25L60 57.2L57.15 60L49.2 52.1C47.6333 53.3333 45.9 54.2917 44 54.975C42.1 55.6583 40.1 56 38 56Z" fill="#E8EAED"/>
</svg>
