<svg width="80" height="80" viewBox="0 0 80 80" fill="none" xmlns="http://www.w3.org/2000/svg">
<rect width="80" height="80" rx="20" fill="#9452D1"/>
<path d="M40.1332 59.4972C37.7894 59.4972 35.7002 59.0947 33.8654 58.2898C32.0425 57.4848 30.5924 56.3662 29.5153 54.9339C28.4499 53.4898 27.8699 51.8149 27.7752 49.9091H32.2496C32.3443 51.081 32.7468 52.093 33.457 52.9453C34.1673 53.7857 35.0965 54.4368 36.2447 54.8984C37.3929 55.3601 38.6654 55.5909 40.0621 55.5909C41.6246 55.5909 43.0096 55.3187 44.217 54.7741C45.4244 54.2296 46.3713 53.4721 47.0579 52.5014C47.7444 51.5308 48.0877 50.4062 48.0877 49.1278C48.0877 47.7902 47.7563 46.6125 47.0934 45.5945C46.4305 44.5646 45.4599 43.7597 44.1815 43.1797C42.9031 42.5997 41.3406 42.3097 39.494 42.3097H36.582V38.4034H39.494C40.9381 38.4034 42.2047 38.143 43.2937 37.6222C44.3945 37.1013 45.2527 36.3674 45.8683 35.4205C46.4956 34.4735 46.8093 33.3608 46.8093 32.0824C46.8093 30.8513 46.5371 29.7801 45.9925 28.8686C45.448 27.9571 44.6786 27.2469 43.6843 26.7379C42.7018 26.2289 41.5418 25.9744 40.2042 25.9744C38.9495 25.9744 37.7657 26.2053 36.6531 26.6669C35.5522 27.1167 34.6526 27.7737 33.9542 28.6378C33.2558 29.4901 32.877 30.5199 32.8178 31.7273H28.5565C28.6275 29.8215 29.2016 28.1525 30.2788 26.7202C31.3559 25.276 32.7646 24.1515 34.5046 23.3466C36.2565 22.5417 38.18 22.1392 40.2752 22.1392C42.5243 22.1392 44.4537 22.5949 46.0636 23.5064C47.6734 24.406 48.9104 25.5956 49.7745 27.0753C50.6386 28.5549 51.0707 30.1529 51.0707 31.8693C51.0707 33.9171 50.5321 35.6631 49.4549 37.1072C48.3896 38.5514 46.9395 39.5516 45.1048 40.108V40.392C47.4012 40.7708 49.1945 41.7474 50.4847 43.3217C51.775 44.8842 52.4201 46.8196 52.4201 49.1278C52.4201 51.1046 51.8815 52.8802 50.8043 54.4545C49.739 56.017 48.283 57.2481 46.4364 58.1477C44.5898 59.0473 42.4888 59.4972 40.1332 59.4972Z" fill="white"/>
</svg>
