<svg width="80" height="80" viewBox="0 0 80 80" fill="none" xmlns="http://www.w3.org/2000/svg">
<rect width="80" height="80" rx="20" fill="#9452D1"/>
<path d="M40.4179 59.4972C38.3345 59.4972 36.4584 59.0829 34.7893 58.2543C33.1203 57.4257 31.7827 56.2893 30.7765 54.8452C29.7704 53.401 29.22 51.7557 29.1253 49.9091H33.3866C33.5524 51.5545 34.2981 52.9157 35.6238 53.9929C36.9614 55.0582 38.5595 55.5909 40.4179 55.5909C41.9094 55.5909 43.2351 55.2417 44.3952 54.5433C45.567 53.8449 46.4844 52.8861 47.1473 51.6669C47.822 50.4358 48.1594 49.045 48.1594 47.4943C48.1594 45.9081 47.8102 44.4936 47.1118 43.2507C46.4252 41.996 45.4783 41.0076 44.2709 40.2855C43.0635 39.5634 41.6845 39.1965 40.1338 39.1847C39.0211 39.1728 37.8788 39.3445 36.7069 39.6996C35.5351 40.0428 34.5703 40.4867 33.8128 41.0312L29.6934 40.5341L31.8952 22.6364H50.7872V26.5426H35.5883L34.3099 37.267H34.523C35.2687 36.6752 36.2039 36.1839 37.3284 35.7933C38.4529 35.4027 39.6248 35.2074 40.844 35.2074C43.0694 35.2074 45.0521 35.7401 46.7922 36.8054C48.5441 37.8589 49.9172 39.303 50.9115 41.1378C51.9176 42.9725 52.4207 45.0677 52.4207 47.4233C52.4207 49.7434 51.8999 51.8149 50.8582 53.6378C49.8284 55.4489 48.4079 56.8812 46.5969 57.9347C44.7858 58.9763 42.7261 59.4972 40.4179 59.4972Z" fill="white"/>
</svg>
