<svg width="80" height="80" viewBox="0 0 80 80" fill="none" xmlns="http://www.w3.org/2000/svg">
<rect width="80" height="80" rx="20" fill="#9452D1"/>
<path d="M54 32C54.5667 32 55.0417 31.8083 55.425 31.425C55.8083 31.0417 56 30.5667 56 30C56 29.4333 55.8083 28.9583 55.425 28.575C55.0417 28.1917 54.5667 28 54 28C53.4333 28 52.9583 28.1917 52.575 28.575C52.1917 28.9583 52 29.4333 52 30C52 30.5667 52.1917 31.0417 52.575 31.425C52.9583 31.8083 53.4333 32 54 32ZM54 36C52.3 36 50.875 35.425 49.725 34.275C48.575 33.125 48 31.7 48 30C48 28.3333 48.575 26.9167 49.725 25.75C50.875 24.5833 52.3 24 54 24C55.6667 24 57.0833 24.5833 58.25 25.75C59.4167 26.9167 60 28.3333 60 30C60 31.7 59.4167 33.125 58.25 34.275C57.0833 35.425 55.6667 36 54 36ZM40 30C40.8333 30 41.5417 29.7167 42.125 29.15C42.7083 28.5833 43 27.8667 43 27C43 26.1667 42.7083 25.4583 42.125 24.875C41.5417 24.2917 40.8333 24 40 24C39.1333 24 38.4167 24.2917 37.85 24.875C37.2833 25.4583 37 26.1667 37 27C37 27.8667 37.2833 28.5833 37.85 29.15C38.4167 29.7167 39.1333 30 40 30ZM40 34C38.0333 34 36.375 33.325 35.025 31.975C33.675 30.625 33 28.9667 33 27C33 25.0667 33.675 23.4167 35.025 22.05C36.375 20.6833 38.0333 20 40 20C41.9333 20 43.5833 20.6833 44.95 22.05C46.3167 23.4167 47 25.0667 47 27C47 28.9667 46.3167 30.625 44.95 31.975C43.5833 33.325 41.9333 34 40 34ZM32 42.75C32 43.75 32.5333 44.9167 33.6 46.25C34.6667 47.5833 36.8 49.7 40 52.6C43.1333 49.7667 45.25 47.6833 46.35 46.35C47.45 45.0167 48 43.8167 48 42.75C48 41.9833 47.75 41.3333 47.25 40.8C46.75 40.2667 46.1333 40 45.4 40C44.9333 40 44.4917 40.1 44.075 40.3C43.6583 40.5 43.3167 40.7833 43.05 41.15L40.65 44H39.3L36.9 41.15C36.6333 40.7833 36.2917 40.5 35.875 40.3C35.4583 40.1 35.0333 40 34.6 40C33.8333 40 33.2083 40.2667 32.725 40.8C32.2417 41.3333 32 41.9833 32 42.75ZM28 42.75C28 40.9833 28.6 39.4167 29.8 38.05C31 36.6833 32.6 36 34.6 36C35.6333 36 36.625 36.2333 37.575 36.7C38.525 37.1667 39.3333 37.8 40 38.6C40.6667 37.8 41.4667 37.1667 42.4 36.7C43.3333 36.2333 44.3333 36 45.4 36C47.4 36 49 36.6917 50.2 38.075C51.4 39.4583 52 41.0167 52 42.75C52 44.5167 51.3583 46.2583 50.075 47.975C48.7917 49.6917 46.1667 52.3667 42.2 56L40 58L37.8 56C33.7667 52.3333 31.125 49.65 29.875 47.95C28.625 46.25 28 44.5167 28 42.75ZM26 32C26.5667 32 27.0417 31.8083 27.425 31.425C27.8083 31.0417 28 30.5667 28 30C28 29.4333 27.8083 28.9583 27.425 28.575C27.0417 28.1917 26.5667 28 26 28C25.4333 28 24.9583 28.1917 24.575 28.575C24.1917 28.9583 24 29.4333 24 30C24 30.5667 24.1917 31.0417 24.575 31.425C24.9583 31.8083 25.4333 32 26 32ZM40.15 60V56H56V42H50.1V38H56C57.1 38 58.0417 38.3917 58.825 39.175C59.6083 39.9583 60 40.9 60 42V60H40.15ZM24 56H40.15V60H20V42C20 40.9 20.3833 39.9583 21.15 39.175C21.9167 38.3917 22.8667 38 24 38H29.9V42H24V56ZM26 36C24.3 36 22.875 35.425 21.725 34.275C20.575 33.125 20 31.7 20 30C20 28.3333 20.575 26.9167 21.725 25.75C22.875 24.5833 24.3 24 26 24C27.6667 24 29.0833 24.5833 30.25 25.75C31.4167 26.9167 32 28.3333 32 30C32 31.7 31.4167 33.125 30.25 34.275C29.0833 35.425 27.6667 36 26 36Z" fill="#E8EAED"/>
</svg>
