<svg width="80" height="80" viewBox="0 0 80 80" fill="none" xmlns="http://www.w3.org/2000/svg">
<rect width="80" height="80" rx="20" fill="#9452D1"/>
<path d="M29.1275 59V55.804L41.1303 42.6648C42.5389 41.1259 43.699 39.7884 44.6104 38.652C45.5219 37.5038 46.1966 36.4266 46.6346 35.4205C47.0844 34.4025 47.3093 33.3371 47.3093 32.2244C47.3093 30.946 47.0015 29.8393 46.386 28.9041C45.7823 27.969 44.9537 27.2469 43.9002 26.7379C42.8467 26.2289 41.663 25.9744 40.3491 25.9744C38.9523 25.9744 37.7331 26.2644 36.6914 26.8445C35.6616 27.4126 34.8626 28.2116 34.2944 29.2415C33.738 30.2713 33.4599 31.4787 33.4599 32.8636H29.2695C29.2695 30.733 29.7608 28.8627 30.7433 27.2528C31.7257 25.643 33.0633 24.3883 34.756 23.4886C36.4606 22.589 38.3723 22.1392 40.4911 22.1392C42.6218 22.1392 44.5098 22.589 46.1552 23.4886C47.8005 24.3883 49.0908 25.6016 50.0259 27.1286C50.9611 28.6555 51.4286 30.3542 51.4286 32.2244C51.4286 33.562 51.186 34.87 50.7006 36.1484C50.2272 37.415 49.3986 38.8295 48.2148 40.392C47.043 41.9427 45.4154 43.8366 43.332 46.0739L35.1644 54.8097V55.0938H52.0678V59H29.1275Z" fill="white"/>
</svg>
