<svg width="80" height="80" viewBox="0 0 80 80" fill="none" xmlns="http://www.w3.org/2000/svg">
<rect width="80" height="80" rx="20" fill="#9452D1"/>
<path d="M38.05 58V53.7C36.2834 53.3 34.7584 52.5333 33.475 51.4C32.1917 50.2667 31.25 48.6667 30.65 46.6L34.35 45.1C34.85 46.7 35.5917 47.9167 36.575 48.75C37.5584 49.5833 38.85 50 40.45 50C41.8167 50 42.975 49.6917 43.925 49.075C44.875 48.4583 45.35 47.5 45.35 46.2C45.35 45.0333 44.9834 44.1083 44.25 43.425C43.5167 42.7417 41.8167 41.9667 39.15 41.1C36.2834 40.2 34.3167 39.125 33.25 37.875C32.1834 36.625 31.65 35.1 31.65 33.3C31.65 31.1333 32.35 29.45 33.75 28.25C35.15 27.05 36.5834 26.3667 38.05 26.2V22H42.05V26.2C43.7167 26.4667 45.0917 27.075 46.175 28.025C47.2584 28.975 48.05 30.1333 48.55 31.5L44.85 33.1C44.45 32.0333 43.8834 31.2333 43.15 30.7C42.4167 30.1667 41.4167 29.9 40.15 29.9C38.6834 29.9 37.5667 30.225 36.8 30.875C36.0334 31.525 35.65 32.3333 35.65 33.3C35.65 34.4 36.15 35.2667 37.15 35.9C38.15 36.5333 39.8834 37.2 42.35 37.9C44.65 38.5667 46.3917 39.625 47.575 41.075C48.7584 42.525 49.35 44.2 49.35 46.1C49.35 48.4667 48.65 50.2667 47.25 51.5C45.85 52.7333 44.1167 53.5 42.05 53.8V58H38.05Z" fill="#E8EAED"/>
</svg>
